# xmcd
#
# Track frame offsets: 
#        150
#        18444
#        35884
#        52069
#        71812
#        87937
#        111530
#        135452
#        156121
#        174610
#        192599
#        216940
#        232377
#        249078
#        272975
#        289935
#        303438
#        321427
#
# Disc length: 4787 seconds
#
# Revision: 0
# Processed by: cddbd v1.5.2PL0 Copyright (c) Steve Scherf et al.
# Submitted via: ExactAudioCopy v1.3
#
DISCID=2212b112
DTITLE=Various Artist - Trail Of The Wolf - vol.09 - B-Side  CD1
DYEAR=2019
DGENRE=Blues
TTITLE0=Rev. Jimmie Bratcher - Jupiter and Mars
TTITLE1=Mick Kolassa - I Just Want To Make Love To You
TTITLE2=Charlie Musselwhite - Natural Born Lover
TTITLE3=Chris Beard - One More Cry for Love
TTITLE4=Jim Allchin - You Reap What You Sow
TTITLE5=Willie King - I Am The Blues
TTITLE6=Mike Wheeler - A Lucky Man
TTITLE7=Dr. John - Voices in My Head
TTITLE8=Jay Willie Blues Band - I Got A Stomach Ache
TTITLE9=Big Boy Bloater - I Can't Forget About You
TTITLE10=Freddie and the Screamers - Axe Is Gonna Fall
TTITLE11=Mikey Jr - Howlin' For My Baby
TTITLE12=Rocky Athas - Texas Girls
TTITLE13=Robert Ward - I'm So Proud to Have You for My Love
TTITLE14=Zed Mitchell - One Day At A Time
TTITLE15=James Armstrong - Second Time Around
TTITLE16=The Beat Daddys - High Cost of Lovin'
TTITLE17=Studebaker John - Down at the Bottom
EXTD=
EXTT0=
EXTT1=
EXTT2=
EXTT3=
EXTT4=
EXTT5=
EXTT6=
EXTT7=
EXTT8=
EXTT9=
EXTT10=
EXTT11=
EXTT12=
EXTT13=
EXTT14=
EXTT15=
EXTT16=
EXTT17=
PLAYORDER=
